<svg viewBox="0 0 400 400" xmlns="http://www.w3.org/2000/svg">
  <rect width="400" height="400" fill="#ffffff" /> 
  <g id="sockybara">
    
    // add colors
    <g id="color">
      // front right leg
      <rect x="260" y="265" width="20" height="35" fill="#ffffff" /> // leg
      <rect x="260" y="285" width="33" height="15" fill="#ffffff" /> // foot

      // front left leg
      <rect x="210" y="265" width="20" height="35" fill="#ffffff" /> // leg
      <rect x="210" y="285" width="33" height="15" fill="#ffffff" /> // foot

      // back left leg
      <rect x="120" y="265" width="20" height="35" fill="#ffffff" /> // leg
      <rect x="120" y="285" width="33" height="15" fill="#ffffff" /> // foot

      // back right leg
      <rect x="70" y="265" width="20" height="35" fill="#ffffff" /> // leg
      <rect x="70" y="285" width="33" height="15" fill="#ffffff" /> // foot
      
      // nose box fill
      <rect x="257" y="167" width="80" height="65" fill="#ffffff"/> // nose

      // right ear fill
      <rect x="208" y="112" width="20" height="12" fill="#ffffff" /> // back ear

      // left ear fill
      <rect x="258" y="112" width="20" height="12" fill="#ffffff" /> // front ear
    </g>

    // draw outlines
    <g id="outlines" fill="none" stroke="#000000" stroke-width="7" stroke-linejoin="round" stroke-linecap="round">
        <path d="M 190 174 L 190 125" /> // back of head
        <path d="M 190 124 L 310 124" /> // top of head
        <path d="M 310 165 L 310 126" /> // front of head / face
        <path d="M 190 175 L 80 175 Q 70 175 70 185 L 70 245" /> 
        <path d="M 90 245 L 209 245" /> // bottom body front half
        <path d="M 230 245 L 260 245" /> // bottom body nose side
      
        // vertical leg stems
        <path d="M 70 200 L 70 265" />
        <path d="M 90 247 L 90 265" />
        <path d="M 120 247 L 120 265" />
        <path d="M 140 245 L 140 265" />
        <path d="M 210 245 L 210 265" />
        <path d="M 230 245 L 230 265" />
        <path d="M 260 245 L 260 265" />
        <path d="M 280 235 L 280 265" />
        // leg + foot outlines (rounded)
        <path d="M 90 265 L 70 265 L 70 300 L 103 300 L 103 285 L 90 285 Z" /> // back right leg
        <path d="M 140 265 L 120 265 L 120 300 L 153 300 L 153 285 L 140 285 Z" /> // back left leg
        <path d="M 230 265 L 210 265 L 210 300 L 243 300 L 243 285 L 230 285 Z" /> // front left leg
        <path d="M 280 265 L 260 265 L 260 300 L 293 300 L 293 285 L 280 285 Z" /> // front right leg
        <rect x="257" y="167" width="80" height="65" /> // nose box outline
        <rect x="258" y="112" width="20" height="12" /> // front ear
        <rect x="208" y="112" width="20" height="12" /> // back ear
    </g>

    // draw face
    <g id="face" fill="#000000">
        <rect x="280" y="140" width="10" height="16" /> // right eye
        <rect x="238" y="140" width="10" height="16" /> // left eye
        <circle cx="295" cy="190" r="4" /> // right nostril
        <circle cx="313" cy="190" r="4" /> // left nostril
        <rect x="303" y="206" width="4" height="28" /> // nose bridge or mouth detail
    </g>
  </g>
</svg>
